<svg width="1031" height="253" viewBox="0 0 1031 253" fill="none" xmlns="http://www.w3.org/2000/svg">
<g clip-path="url(#clip0_117_499)">
<rect width="1031" height="253" fill="white"/>
<circle cx="122" cy="127" r="119" fill="#FFA234"/>
<path d="M160.53 147.756H180.121L224.901 102.976H40.1827C36.5493 102.976 33.0139 104.154 30.1071 106.334L1 128.164L36.1357 145.948C38.4836 147.135 41.0779 147.755 43.7091 147.756H51.3777" stroke="white" stroke-width="15" stroke-linecap="round" stroke-linejoin="round"/>
<path d="M129.743 153.353C129.743 162.628 109.693 170.146 84.9629 170.146V136.561C109.693 136.561 129.743 144.078 129.743 153.353Z" stroke="white" stroke-width="15" stroke-linejoin="round"/>
<path d="M152.134 80.5852L101.756 102.975H185.719L202.511 47H185.719L152.134 80.5852Z" stroke="white" stroke-width="15" stroke-linecap="round" stroke-linejoin="round"/>
<path d="M345.013 179.2C334.513 179.2 325.013 176.9 316.513 172.3C308.113 167.6 301.513 161.2 296.713 153.1C291.913 144.9 289.513 135.7 289.513 125.5C289.513 115.3 291.913 106.15 296.713 98.05C301.513 89.85 308.163 83.45 316.663 78.85C325.163 74.15 334.663 71.8 345.163 71.8C353.363 71.8 360.863 73.2 367.663 76C374.463 78.7 380.263 82.75 385.063 88.15L375.313 97.6C367.413 89.3 357.563 85.15 345.763 85.15C337.963 85.15 330.913 86.9 324.613 90.4C318.313 93.9 313.363 98.75 309.763 104.95C306.263 111.05 304.513 117.9 304.513 125.5C304.513 133.1 306.263 140 309.763 146.2C313.363 152.3 318.313 157.1 324.613 160.6C330.913 164.1 337.963 165.85 345.763 165.85C357.463 165.85 367.313 161.65 375.313 153.25L385.063 162.7C380.263 168.1 374.413 172.2 367.513 175C360.713 177.8 353.213 179.2 345.013 179.2ZM447.272 179.2C433.272 179.2 422.372 175.2 414.572 167.2C406.772 159.2 402.872 147.7 402.872 132.7V73H417.872V132.1C417.872 154.6 427.722 165.85 447.422 165.85C457.022 165.85 464.372 163.1 469.472 157.6C474.572 152 477.122 143.5 477.122 132.1V73H491.672V132.7C491.672 147.8 487.772 159.35 479.972 167.35C472.172 175.25 461.272 179.2 447.272 179.2ZM617.525 178L617.375 101.5L579.425 165.25H572.525L534.575 101.95V178H520.175V73H532.475L576.275 146.8L619.475 73H631.775L631.925 178H617.525Z" fill="black"/>
<path d="M316.513 172.3L314.072 176.663L314.103 176.681L314.134 176.697L316.513 172.3ZM296.713 153.1L292.398 155.626L292.405 155.637L292.412 155.649L296.713 153.1ZM296.713 98.05L301.015 100.599L301.022 100.587L301.029 100.576L296.713 98.05ZM316.663 78.85L319.043 83.2474L319.063 83.2366L319.083 83.2256L316.663 78.85ZM367.663 76L365.76 80.6234L365.789 80.6354L365.818 80.6471L367.663 76ZM385.063 88.15L388.543 91.7403L391.982 88.4074L388.801 84.8282L385.063 88.15ZM375.313 97.6L371.692 101.047L375.17 104.702L378.793 101.19L375.313 97.6ZM324.613 90.4L322.185 86.0292L322.185 86.0292L324.613 90.4ZM309.763 104.95L305.44 102.439L305.433 102.45L305.427 102.462L309.763 104.95ZM309.763 146.2L305.409 148.658L305.433 148.7L305.457 148.741L309.763 146.2ZM324.613 160.6L322.185 164.971L322.185 164.971L324.613 160.6ZM375.313 153.25L378.793 149.66L375.171 146.149L371.693 149.802L375.313 153.25ZM385.063 162.7L388.801 166.022L391.982 162.443L388.543 159.11L385.063 162.7ZM367.513 175L365.633 170.367L365.622 170.372L365.61 170.377L367.513 175ZM345.013 174.2C335.271 174.2 326.6 172.074 318.893 167.903L314.134 176.697C323.427 181.726 333.756 184.2 345.013 184.2V174.2ZM318.955 167.937C311.306 163.657 305.355 157.875 301.015 150.551L292.412 155.649C297.672 164.525 304.921 171.543 314.072 176.663L318.955 167.937ZM301.029 150.574C296.71 143.197 294.513 134.88 294.513 125.5H284.513C284.513 136.52 287.117 146.603 292.398 155.626L301.029 150.574ZM294.513 125.5C294.513 116.12 296.71 107.863 301.015 100.599L292.412 95.501C287.117 104.436 284.513 114.48 284.513 125.5H294.513ZM301.029 100.576C305.358 93.1791 311.333 87.4201 319.043 83.2474L314.284 74.4526C304.994 79.4799 297.669 86.5209 292.398 95.5241L301.029 100.576ZM319.083 83.2256C326.783 78.968 335.439 76.8 345.163 76.8V66.8C333.888 66.8 323.544 69.332 314.244 74.4744L319.083 83.2256ZM345.163 76.8C352.786 76.8 359.629 78.0991 365.76 80.6234L369.567 71.3766C362.098 68.3009 353.941 66.8 345.163 66.8V76.8ZM365.818 80.6471C371.902 83.0628 377.052 86.6628 381.326 91.4718L388.801 84.8282C383.475 78.8372 377.025 74.3372 369.509 71.3529L365.818 80.6471ZM381.584 84.5597L371.834 94.0097L378.793 101.19L388.543 91.7403L381.584 84.5597ZM378.935 94.1528C370.06 84.8284 358.886 80.15 345.763 80.15V90.15C356.241 90.15 364.767 93.7716 371.692 101.047L378.935 94.1528ZM345.763 80.15C337.186 80.15 329.288 82.083 322.185 86.0292L327.042 94.7708C332.538 91.717 338.741 90.15 345.763 90.15V80.15ZM322.185 86.0292C315.102 89.9646 309.495 95.4554 305.44 102.439L314.087 107.461C317.232 102.045 321.525 97.8354 327.042 94.7708L322.185 86.0292ZM305.427 102.462C301.457 109.38 299.513 117.1 299.513 125.5H309.513C309.513 118.7 311.07 112.72 314.1 107.438L305.427 102.462ZM299.513 125.5C299.513 133.901 301.457 141.657 305.409 148.658L314.118 143.742C311.07 138.343 309.513 132.299 309.513 125.5H299.513ZM305.457 148.741C309.518 155.621 315.122 161.047 322.185 164.971L327.042 156.229C321.505 153.153 317.209 148.979 314.07 143.659L305.457 148.741ZM322.185 164.971C329.288 168.917 337.186 170.85 345.763 170.85V160.85C338.741 160.85 332.538 159.283 327.042 156.229L322.185 164.971ZM345.763 170.85C358.818 170.85 369.981 166.099 378.934 156.698L371.693 149.802C364.646 157.201 356.108 160.85 345.763 160.85V170.85ZM371.834 156.84L381.584 166.29L388.543 159.11L378.793 149.66L371.834 156.84ZM381.326 159.378C377.052 164.186 371.844 167.847 365.633 170.367L369.394 179.633C376.982 176.553 383.475 172.014 388.801 166.022L381.326 159.378ZM365.61 170.377C359.479 172.901 352.636 174.2 345.013 174.2V184.2C353.791 184.2 361.948 182.699 369.417 179.623L365.61 170.377ZM414.572 167.2L410.992 170.69L410.992 170.691L414.572 167.2ZM402.872 73V68H397.872V73H402.872ZM417.872 73H422.872V68H417.872V73ZM469.472 157.6L473.139 161L473.154 160.983L473.169 160.967L469.472 157.6ZM477.122 73V68H472.122V73H477.122ZM491.672 73H496.672V68H491.672V73ZM479.972 167.35L483.53 170.863L483.541 170.852L483.552 170.841L479.972 167.35ZM447.272 174.2C434.259 174.2 424.786 170.513 418.152 163.709L410.992 170.691C419.959 179.887 432.286 184.2 447.272 184.2V174.2ZM418.152 163.709C411.539 156.927 407.872 146.854 407.872 132.7H397.872C397.872 148.546 402.005 161.473 410.992 170.69L418.152 163.709ZM407.872 132.7V73H397.872V132.7H407.872ZM402.872 78H417.872V68H402.872V78ZM412.872 73V132.1H422.872V73H412.872ZM412.872 132.1C412.872 143.97 415.456 153.806 421.498 160.706C427.651 167.734 436.616 170.85 447.422 170.85V160.85C438.529 160.85 432.719 158.341 429.022 154.119C425.214 149.769 422.872 142.73 422.872 132.1H412.872ZM447.422 170.85C458.001 170.85 466.844 167.788 473.139 161L465.806 154.2C461.901 158.412 456.044 160.85 447.422 160.85V170.85ZM473.169 160.967C479.445 154.076 482.122 144.133 482.122 132.1H472.122C472.122 142.867 469.7 149.924 465.776 154.233L473.169 160.967ZM482.122 132.1V73H472.122V132.1H482.122ZM477.122 78H491.672V68H477.122V78ZM486.672 73V132.7H496.672V73H486.672ZM486.672 132.7C486.672 146.965 483 157.083 476.392 163.859L483.552 170.841C492.545 161.617 496.672 148.635 496.672 132.7H486.672ZM476.414 163.837C469.785 170.552 460.304 174.2 447.272 174.2V184.2C462.241 184.2 474.56 179.948 483.53 170.863L476.414 163.837ZM617.525 178L612.525 178.01L612.535 183H617.525V178ZM617.375 101.5L622.375 101.49L622.339 83.3856L613.078 98.9424L617.375 101.5ZM579.425 165.25V170.25H582.267L583.721 167.808L579.425 165.25ZM572.525 165.25L568.236 167.821L569.693 170.25H572.525V165.25ZM534.575 101.95L538.863 99.379L529.575 83.8862V101.95H534.575ZM534.575 178V183H539.575V178H534.575ZM520.175 178H515.175V183H520.175V178ZM520.175 73V68H515.175V73H520.175ZM532.475 73L536.775 70.4481L535.322 68H532.475V73ZM576.275 146.8L571.975 149.352L576.305 156.647L580.59 149.326L576.275 146.8ZM619.475 73V68H616.608L615.16 70.4741L619.475 73ZM631.775 73L636.775 72.9929L636.768 68H631.775V73ZM631.925 178V183H636.932L636.925 177.993L631.925 178ZM622.525 177.99L622.375 101.49L612.375 101.51L612.525 178.01L622.525 177.99ZM613.078 98.9424L575.128 162.692L583.721 167.808L621.671 104.058L613.078 98.9424ZM579.425 160.25H572.525V170.25H579.425V160.25ZM576.813 162.679L538.863 99.379L530.286 104.521L568.236 167.821L576.813 162.679ZM529.575 101.95V178H539.575V101.95H529.575ZM534.575 173H520.175V183H534.575V173ZM525.175 178V73H515.175V178H525.175ZM520.175 78H532.475V68H520.175V78ZM528.175 75.5519L571.975 149.352L580.575 144.248L536.775 70.4481L528.175 75.5519ZM580.59 149.326L623.79 75.5259L615.16 70.4741L571.96 144.274L580.59 149.326ZM619.475 78H631.775V68H619.475V78ZM626.775 73.0071L626.925 178.007L636.925 177.993L636.775 72.9929L626.775 73.0071ZM631.925 173H617.525V183H631.925V173Z" fill="black"/>
<path d="M722.637 86.05H686.637V73H773.487V86.05H737.487V178H722.637V86.05ZM857.774 178L835.124 145.75C832.324 145.95 830.124 146.05 828.524 146.05H802.574V178H787.574V73H828.524C842.124 73 852.824 76.25 860.624 82.75C868.424 89.25 872.324 98.2 872.324 109.6C872.324 117.7 870.324 124.6 866.324 130.3C862.324 136 856.624 140.15 849.224 142.75L874.124 178H857.774ZM828.074 133.3C837.574 133.3 844.824 131.25 849.824 127.15C854.824 123.05 857.324 117.2 857.324 109.6C857.324 102 854.824 96.2 849.824 92.2C844.824 88.1 837.574 86.05 828.074 86.05H802.574V133.3H828.074ZM894.309 73H909.309V178H894.309V73ZM979.444 73C993.044 73 1003.74 76.25 1011.54 82.75C1019.34 89.25 1023.24 98.2 1023.24 109.6C1023.24 121 1019.34 129.95 1011.54 136.45C1003.74 142.95 993.044 146.2 979.444 146.2H953.494V178H938.494V73H979.444ZM978.994 133.15C988.494 133.15 995.744 131.15 1000.74 127.15C1005.74 123.05 1008.24 117.2 1008.24 109.6C1008.24 102 1005.74 96.2 1000.74 92.2C995.744 88.1 988.494 86.05 978.994 86.05H953.494V133.15H978.994Z" fill="#FFA234"/>
<path d="M722.637 86.05H727.637V81.05H722.637V86.05ZM686.637 86.05H681.637V91.05H686.637V86.05ZM686.637 73V68H681.637V73H686.637ZM773.487 73H778.487V68H773.487V73ZM773.487 86.05V91.05H778.487V86.05H773.487ZM737.487 86.05V81.05H732.487V86.05H737.487ZM737.487 178V183H742.487V178H737.487ZM722.637 178H717.637V183H722.637V178ZM722.637 81.05H686.637V91.05H722.637V81.05ZM691.637 86.05V73H681.637V86.05H691.637ZM686.637 78H773.487V68H686.637V78ZM768.487 73V86.05H778.487V73H768.487ZM773.487 81.05H737.487V91.05H773.487V81.05ZM732.487 86.05V178H742.487V86.05H732.487ZM737.487 173H722.637V183H737.487V173ZM727.637 178V86.05H717.637V178H727.637ZM857.774 178L853.683 180.874L855.176 183H857.774V178ZM835.124 145.75L839.216 142.876L837.59 140.561L834.768 140.763L835.124 145.75ZM802.574 146.05V141.05H797.574V146.05H802.574ZM802.574 178V183H807.574V178H802.574ZM787.574 178H782.574V183H787.574V178ZM787.574 73V68H782.574V73H787.574ZM866.324 130.3L870.417 133.172L870.417 133.172L866.324 130.3ZM849.224 142.75L847.567 138.033L841.321 140.227L845.14 145.635L849.224 142.75ZM874.124 178V183H883.778L878.208 175.115L874.124 178ZM849.824 92.2L846.654 96.0663L846.677 96.0855L846.701 96.1043L849.824 92.2ZM802.574 86.05V81.05H797.574V86.05H802.574ZM802.574 133.3H797.574V138.3H802.574V133.3ZM861.866 175.126L839.216 142.876L831.033 148.624L853.683 180.874L861.866 175.126ZM834.768 140.763C832.013 140.96 829.949 141.05 828.524 141.05V151.05C830.299 151.05 832.636 150.94 835.48 150.737L834.768 140.763ZM828.524 141.05H802.574V151.05H828.524V141.05ZM797.574 146.05V178H807.574V146.05H797.574ZM802.574 173H787.574V183H802.574V173ZM792.574 178V73H782.574V178H792.574ZM787.574 78H828.524V68H787.574V78ZM828.524 78C841.353 78 850.787 81.0608 857.423 86.5911L863.825 78.9089C854.862 71.4392 842.895 68 828.524 68V78ZM857.423 86.5911C863.935 92.0172 867.324 99.4788 867.324 109.6H877.324C877.324 96.9212 872.914 86.4828 863.825 78.9089L857.423 86.5911ZM867.324 109.6C867.324 116.845 865.549 122.7 862.231 127.428L870.417 133.172C875.1 126.5 877.324 118.555 877.324 109.6H867.324ZM862.231 127.428C858.905 132.168 854.112 135.733 847.567 138.033L850.882 147.467C859.136 144.567 865.743 139.832 870.417 133.172L862.231 127.428ZM845.14 145.635L870.04 180.885L878.208 175.115L853.308 139.865L845.14 145.635ZM874.124 173H857.774V183H874.124V173ZM828.074 138.3C838.205 138.3 846.765 136.125 852.995 131.016L846.654 123.284C842.884 126.375 836.944 128.3 828.074 128.3V138.3ZM852.995 131.016C859.361 125.796 862.324 118.405 862.324 109.6H852.324C852.324 115.995 850.287 120.304 846.654 123.284L852.995 131.016ZM862.324 109.6C862.324 100.798 859.361 93.4261 852.948 88.2957L846.701 96.1043C850.288 98.9739 852.324 103.202 852.324 109.6H862.324ZM852.995 88.3337C846.765 83.2252 838.205 81.05 828.074 81.05V91.05C836.944 91.05 842.884 92.9748 846.654 96.0663L852.995 88.3337ZM828.074 81.05H802.574V91.05H828.074V81.05ZM797.574 86.05V133.3H807.574V86.05H797.574ZM802.574 138.3H828.074V128.3H802.574V138.3ZM894.309 73V68H889.309V73H894.309ZM909.309 73H914.309V68H909.309V73ZM909.309 178V183H914.309V178H909.309ZM894.309 178H889.309V183H894.309V178ZM894.309 78H909.309V68H894.309V78ZM904.309 73V178H914.309V73H904.309ZM909.309 173H894.309V183H909.309V173ZM899.309 178V73H889.309V178H899.309ZM953.494 146.2V141.2H948.494V146.2H953.494ZM953.494 178V183H958.494V178H953.494ZM938.494 178H933.494V183H938.494V178ZM938.494 73V68H933.494V73H938.494ZM1000.74 127.15L1003.87 131.054L1003.89 131.035L1003.91 131.016L1000.74 127.15ZM1000.74 92.2L997.574 96.0663L997.597 96.0855L997.621 96.1043L1000.74 92.2ZM953.494 86.05V81.05H948.494V86.05H953.494ZM953.494 133.15H948.494V138.15H953.494V133.15ZM979.444 78C992.273 78 1001.71 81.0608 1008.34 86.5911L1014.75 78.9089C1005.78 71.4392 993.815 68 979.444 68V78ZM1008.34 86.5911C1014.85 92.0172 1018.24 99.4788 1018.24 109.6H1028.24C1028.24 96.9212 1023.83 86.4828 1014.75 78.9089L1008.34 86.5911ZM1018.24 109.6C1018.24 119.721 1014.85 127.183 1008.34 132.609L1014.75 140.291C1023.83 132.717 1028.24 122.279 1028.24 109.6H1018.24ZM1008.34 132.609C1001.71 138.139 992.273 141.2 979.444 141.2V151.2C993.815 151.2 1005.78 147.761 1014.75 140.291L1008.34 132.609ZM979.444 141.2H953.494V151.2H979.444V141.2ZM948.494 146.2V178H958.494V146.2H948.494ZM953.494 173H938.494V183H953.494V173ZM943.494 178V73H933.494V178H943.494ZM938.494 78H979.444V68H938.494V78ZM978.994 138.15C989.101 138.15 997.642 136.035 1003.87 131.054L997.621 123.246C993.847 126.265 987.887 128.15 978.994 128.15V138.15ZM1003.91 131.016C1010.28 125.796 1013.24 118.405 1013.24 109.6H1003.24C1003.24 115.995 1001.21 120.304 997.574 123.284L1003.91 131.016ZM1013.24 109.6C1013.24 100.798 1010.28 93.4261 1003.87 88.2957L997.621 96.1043C1001.21 98.9739 1003.24 103.202 1003.24 109.6H1013.24ZM1003.91 88.3337C997.685 83.2252 989.125 81.05 978.994 81.05V91.05C987.864 91.05 993.804 92.9748 997.574 96.0663L1003.91 88.3337ZM978.994 81.05H953.494V91.05H978.994V81.05ZM948.494 86.05V133.15H958.494V86.05H948.494ZM953.494 138.15H978.994V128.15H953.494V138.15Z" fill="#FFA234"/>
</g>
<defs>
<clipPath id="clip0_117_499">
<rect width="1031" height="253" fill="white"/>
</clipPath>
</defs>
</svg>
